inDegrees=yes
name=ik_lifting_orientations
DataType=double
version=3
OpenSimVersion=4.5-2024-01-10-34fd6af
endheader
time	pelvis_tilt	pelvis_list	pelvis_rotation	pelvis_tx	pelvis_ty	pelvis_tz	hip_flexion_r	hip_adduction_r	hip_rotation_r	knee_angle_r	knee_angle_r_beta	ankle_angle_r	subtalar_angle_r	mtp_angle_r	hip_flexion_l	hip_adduction_l	hip_rotation_l	knee_angle_l	knee_angle_l_beta	ankle_angle_l	subtalar_angle_l	mtp_angle_l	lumbar_extension	lumbar_bending	lumbar_rotation	arm_flex_r	arm_add_r	arm_rot_r	elbow_flex_r	pro_sup_r	wrist_flex_r	wrist_dev_r	arm_flex_l	arm_add_l	arm_rot_l	elbow_flex_l	pro_sup_l	wrist_flex_l	wrist_dev_l
2.35	0.8475675402746237	0.8023060803286378	-92.97761003879084	0	0.9399999998679526	0	44.99736490882312	-10.03334954622444	0	59.99870179877443	1.047174893310858	-5.00634979791571	0	0	44.99736490882312	-10.03334954622444	0	59.99870179877443	1.047174893310858	-5.00634979791571	0	0	0.2713388556644966	-0.3768344945149314	13.40102747876205	94.84626538012746	22.65017386630739	39.60843119146179	0.01058390885552792	1.006488105664242	0	0	0	-12.65744428111779	0	89.01333545802252	1.006488105664242	0	0
2.36	0.8272159642912206	0.8073137398570484	-92.68846882848744	0	0.9399999998679526	0	44.99736545878694	-10.03332519401632	0	59.99870203420168	1.047174897419839	-5.006343747829582	0	0	44.99736545878694	-10.03332519401632	0	59.99870203420168	1.047174897419839	-5.006343747829582	0	0	0.1338512380237465	-0.2427593635412057	13.31470224919317	94.97652719848283	21.73242067308229	39.44857739837602	0.01079245063829827	1.006341998279959	0	0	0	-12.65769448248582	0	89.01347866167764	1.006341998279959	0	0
2.37	0.7833763037635556	0.7553528799590582	-92.58183579655241	0	0.9399999998679526	0	44.99736593623663	-10.03330405943225	0	59.99870223856626	1.047174900986674	-5.006338498068788	0	0	44.99736593623663	-10.03330405943225	0	59.99870223856626	1.047174900986674	-5.006338498068788	0	0	0.06496256029482178	-0.1965496162933848	13.24995776464088	94.96769790360311	21.19651369306321	39.4184959893645	0.01117245434057153	1.006215154988162	0	0	0	-12.65791169253881	0	89.01360298409368	1.006215154988162	0	0
2.38	0.7743387204658606	0.7326348761152615	-92.38501525593226	0	0.9399999998679526	0	44.9973665021766	-10.03327900103086	0	59.99870248066897	1.047174905212163	-5.006332274043444	0	0	44.9973665021766	-10.03327900103086	0	59.99870248066897	1.047174905212163	-5.006332274043444	0	0	0.01855356368486083	-0.1811617866204553	13.10938618226643	94.87986782291945	20.67562872074994	39.59301539442555	0.01161311601473644	1.006064829283901	0	0	0	-12.65816907175753	0	89.01375032223386	1.006064829283901	0	0
2.39	0.7397424338526252	0.7292842497254586	-92.28923642647926	0	0.9399999998679526	0	44.99736702713868	-10.03325578241391	0	59.99870270535869	1.047174909133738	-5.006326508877521	0	0	44.99736702713868	-10.03325578241391	0	59.99870270535869	1.047174909133738	-5.006326508877521	0	0	-0.136086771407121	-0.02681366010631838	13.07939236530334	95.0051950729664	19.9854803443327	39.54477812779529	0.01195610036294219	1.005925353907593	0	0	0	-12.65840792015063	0	89.01388702568548	1.005925353907593	0	0
2.4	0.6515539210048262	0.6351348693499497	-92.40261349698024	0	0.9399999998679526	0	44.99740430727823	-10.03176494706499	0	59.99871934920515	1.047175199623659	-5.005969361070593	0	0	44.99740430727823	-10.03176494706499	0	59.99871934920515	1.047175199623659	-5.005969361070593	0	0	-0.3739225434343664	0.1599484093972114	13.30389330510353	94.48819377693904	18.44974292119247	39.47977093152462	0.01151470949757158	0.9958529992400403	0	0	0	-12.67586613717161	0	89.02375920573016	0.9958529992400403	0	0
2.41	0.5312263842449942	0.5165497560952383	-92.46500230126459	0	0.9399999998679526	0	44.99745594829267	-10.02977700741836	0	59.99874230466882	1.047175600272082	-5.005500254136854	0	0	44.99745594829267	-10.02977700741836	0	59.99874230466882	1.047175600272082	-5.005500254136854	0	0	-0.621642220823251	0.3628821225065248	13.47350121054815	93.57844949844507	16.84904730028057	39.58284533191767	0.01040862032185603	0.9818397753186177	0	0	0	-12.70020966066722	0	89.03749393727753	0.9818397753186177	0	0
2.42	0.451873175493006	0.4247185096904321	-92.56630362964121	0	0.9399999998679526	0	44.99750277854246	-10.02798691772863	0	59.99876307143203	1.047175962720475	-5.00508140027984	0	0	44.99750277854246	-10.02798691772863	0	59.99876307143203	1.047175962720475	-5.00508140027984	0	0	-0.750971653624923	0.4704015873369231	13.545996651866	92.73497454505778	15.7465611634867	39.7493836499205	0.009482782740088888	0.9691665749315923	0	0	0	-12.72216406895532	0	89.04991527558809	0.9691665749315923	0	0
2.43	0.3625459787390579	0.3329197540301651	-92.61100313697048	0	0.9399999998679526	0	44.99750347662658	-10.02795951444291	0	59.9987633730661	1.047175967984982	-5.005074906734672	0	0	44.99750347662658	-10.02795951444291	0	59.9987633730661	1.047175967984982	-5.005074906734672	0	0	-1.002065105073852	0.6753271120667181	13.67380425293393	92.10859295503812	14.78835646799301	39.96558358850124	0.008737810543936327	0.9689782003933056	0	0	0	-12.722489715992	0	89.05009990645094	0.9689782003933056	0	0
2.44	0.2655797984850419	0.2508009036008844	-92.70455181180353	0	0.9399999998679526	0	44.99750422256	-10.02793023764359	0	59.99876369524583	1.047175973608079	-5.005067970666343	0	0	44.99750422256	-10.02793023764359	0	59.99876369524583	1.047175973608079	-5.005067970666343	0	0	-1.205471149908732	0.8448286160291014	13.55907361493354	91.68049376086827	14.24913766801988	39.98905888830196	0.008076778344659377	0.9687769318971264	0	0	0	-12.722837618858	0	89.05029717502252	0.9687769318971264	0	0
2.45	0.1464675662801677	0.1359857807451154	-92.83308381639647	0	0.9399999998679526	0	44.99750495232074	-10.02790162049081	0	59.99876401049563	1.047175979110226	-5.005061193174268	0	0	44.99750495232074	-10.02790162049081	0	59.99876401049563	1.047175979110226	-5.005061193174268	0	0	-1.400986777178607	1.016845619593508	13.49756710596912	91.30478730338352	13.70506981201951	39.87565783922444	0.007565888731412085	0.9685800011027097	0	0	0	-12.72317805458344	0	89.05049019209848	0.9685800011027097	0	0
2.46	0.08971851586200826	0.07887635903495742	-92.89965281241084	0	0.9399999998679526	0	44.99750540773704	-10.02788379297789	0	59.99876420741982	1.047175982547202	-5.005056973086242	0	0	44.99750540773704	-10.02788379297789	0	59.99876420741982	1.047175982547202	-5.005056973086242	0	0	-1.597364038046366	1.166412955880563	13.32708607954093	91.10920535738462	13.54199295839167	39.82258279872715	0.007193292373460319	0.9684570518066108	0	0	0	-12.72339067057992	0	89.0506106979536	0.9684570518066108	0	0
2.47	0.05999221929123837	0.04520130946631194	-92.86903628155211	0	0.9399999998679526	0	44.99750588896024	-10.02786496051939	0	59.99876441548659	1.047175986178652	-5.005052515796919	0	0	44.99750588896024	-10.02786496051939	0	59.99876441548659	1.047175986178652	-5.005052515796919	0	0	-1.741435753839349	1.286015769472795	13.24678577484949	90.99265245328817	13.49343411804797	39.86298543174288	0.006956450986452215	0.9683271342805029	0	0	0	-12.7236153356391	0	89.05073803355518	0.9683271342805029	0	0
2.48	-0.01465023561545333	-0.003566494276882248	-92.76249576398847	0	0.9399999998679526	0	44.99750638727586	-10.02784552571898	0	59.99876463147984	1.047175989948445	-5.005047919382289	0	0	44.99750638727586	-10.02784552571898	0	59.99876463147984	1.047175989948445	-5.005047919382289	0	0	-1.898436850284951	1.448327464777645	13.09129717607391	91.02795228951305	13.73067895184337	39.81147964753067	0.00687977453495523	0.9681924681300539	0	0	0	-12.72384840817096	0	89.05087002341097	0.9681924681300539	0	0
